<svg width="20" height="20" viewBox="0 0 20 20" fill="none" xmlns="http://www.w3.org/2000/svg">
<path d="M13.25 8.16484L5.75 3.83984" stroke="white" stroke-width="1.6" stroke-linecap="round" stroke-linejoin="round"/>
<path d="M17 13.665V6.99829C16.9997 6.70602 16.9225 6.41897 16.7763 6.16593C16.63 5.91289 16.4198 5.70276 16.1667 5.55662L10.3333 2.22329C10.08 2.07701 9.79256 2 9.5 2C9.20744 2 8.92003 2.07701 8.66667 2.22329L2.83333 5.55662C2.58022 5.70276 2.36998 5.91289 2.22372 6.16593C2.07745 6.41897 2.0003 6.70602 2 6.99829V13.665C2.0003 13.9572 2.07745 14.2443 2.22372 14.4973C2.36998 14.7504 2.58022 14.9605 2.83333 15.1066L8.66667 18.44C8.92003 18.5862 9.20744 18.6633 9.5 18.6633C9.79256 18.6633 10.08 18.5862 10.3333 18.44L16.1667 15.1066C16.4198 14.9605 16.63 14.7504 16.7763 14.4973C16.9225 14.2443 16.9997 13.9572 17 13.665Z" stroke="white" stroke-width="1.6" stroke-linecap="round" stroke-linejoin="round"/>
<path d="M2.22498 6.13159L9.49998 10.3399L16.775 6.13159" stroke="white" stroke-width="1.6" stroke-linecap="round" stroke-linejoin="round"/>
<path d="M9.5 18.7315V10.3315" stroke="white" stroke-width="1.6" stroke-linecap="round" stroke-linejoin="round"/>
</svg>
