<svg width="25" height="25" viewBox="0 0 25 25" fill="none" xmlns="http://www.w3.org/2000/svg">
<path d="M23.8055 22.0271L18.5176 16.5687C19.7907 14.8192 20.4779 12.6898 20.4756 10.5017C20.4756 4.91277 16.0707 0.365723 10.6564 0.365723C5.24205 0.365723 0.837097 4.91277 0.837097 10.5017C0.837097 16.0907 5.24205 20.6377 10.6564 20.6377C12.776 20.6401 14.8389 19.9307 16.5337 18.6166L21.8216 24.075C22.0893 24.322 22.4384 24.4538 22.7973 24.4435C23.1561 24.4331 23.4976 24.2813 23.7514 24.0192C24.0053 23.7572 24.1524 23.4047 24.1624 23.0343C24.1725 22.6638 24.0447 22.3034 23.8055 22.0271ZM3.6426 10.5017C3.6426 9.06979 4.05395 7.67001 4.82463 6.4794C5.59531 5.28878 6.69071 4.36082 7.9723 3.81284C9.2539 3.26486 10.6641 3.12148 12.0247 3.40084C13.3852 3.6802 14.6349 4.36974 15.6158 5.38227C16.5967 6.3948 17.2647 7.68485 17.5353 9.08927C17.806 10.4937 17.6671 11.9494 17.1362 13.2724C16.6054 14.5953 15.7064 15.726 14.553 16.5216C13.3996 17.3171 12.0435 17.7417 10.6564 17.7417C8.79687 17.7394 7.01419 16.9759 5.69934 15.6186C4.38449 14.2614 3.64483 12.4212 3.6426 10.5017Z" fill="white"/>
</svg>
