<svg width="19" height="19" viewBox="0 0 19 19" fill="none" xmlns="http://www.w3.org/2000/svg">
<path d="M8.70739 9.40561L5.00521 9.40561M16.8874 8.99307C16.9661 9.03072 17.0325 9.08936 17.0789 9.16229C17.1253 9.23522 17.1499 9.3195 17.1498 9.4055C17.1498 9.49149 17.1251 9.57574 17.0785 9.6486C17.032 9.72146 16.9656 9.78001 16.8867 9.81754L2.78514 16.4848C2.70082 16.5246 2.60626 16.5386 2.51371 16.525C2.42117 16.5115 2.33492 16.4709 2.26614 16.4086C2.19737 16.3463 2.14925 16.2652 2.12803 16.1757C2.10681 16.0862 2.11346 15.9926 2.14713 15.9068L4.62944 9.56978C4.67082 9.4641 4.67082 9.34712 4.62944 9.24144L2.14775 2.90377C2.11438 2.81816 2.10792 2.72469 2.12922 2.63544C2.15051 2.54618 2.19858 2.46525 2.2672 2.40309C2.33583 2.34094 2.42187 2.30041 2.51419 2.28675C2.60652 2.27309 2.7009 2.28692 2.78514 2.32647L16.8874 8.99307Z" stroke="white" stroke-width="3.39973" stroke-linecap="round" stroke-linejoin="round"/>
</svg>
