<svg width="20" height="20" viewBox="0 0 20 20" fill="none" xmlns="http://www.w3.org/2000/svg">
<path d="M10.7081 3.27449C10.5203 3.09873 10.2656 3 10 3C9.73443 3 9.47973 3.09873 9.29191 3.27449L2.28114 9.83708C2.09871 10.0139 1.99776 10.2507 2.00004 10.4965C2.00232 10.7423 2.10765 10.9775 2.29334 11.1513C2.47904 11.3251 2.73024 11.4237 2.99284 11.4259C3.25544 11.428 3.50843 11.3335 3.69732 11.1627L3.99077 10.888V17.0625C3.99077 17.3111 4.09629 17.5496 4.28411 17.7254C4.47194 17.9012 4.72668 18 4.99231 18H6.99538C7.26101 18 7.51575 17.9012 7.70358 17.7254C7.8914 17.5496 7.99692 17.3111 7.99692 17.0625V15.1875C7.99692 14.9388 8.10244 14.7004 8.29027 14.5245C8.47809 14.3487 8.73284 14.2499 8.99846 14.2499H11.0015C11.2672 14.2499 11.5219 14.3487 11.7097 14.5245C11.8976 14.7004 12.0031 14.9388 12.0031 15.1875V17.0625C12.0031 17.3111 12.1086 17.5496 12.2964 17.7254C12.4842 17.9012 12.739 18 13.0046 18H15.0077C15.2733 18 15.5281 17.9012 15.7159 17.7254C15.9037 17.5496 16.0092 17.3111 16.0092 17.0625V10.888L16.3027 11.1627C16.4916 11.3335 16.7446 11.428 17.0072 11.4259C17.2698 11.4237 17.521 11.3251 17.7067 11.1513C17.8923 10.9775 17.9977 10.7423 18 10.4965C18.0022 10.2507 17.9013 10.0139 17.7189 9.83708L10.7081 3.27449Z" fill="white"/>
</svg>
