<svg width="20" height="20" viewBox="0 0 20 20" fill="none" xmlns="http://www.w3.org/2000/svg">
<path d="M15.5 3H5.5C4.83696 3 4.20107 3.26339 3.73223 3.73223C3.26339 4.20107 3 4.83696 3 5.5V15.5C3 16.163 3.26339 16.7989 3.73223 17.2678C4.20107 17.7366 4.83696 18 5.5 18H15.5C15.721 18 15.933 17.9122 16.0893 17.7559C16.2455 17.5996 16.3333 17.3877 16.3333 17.1667V3.83333C16.3333 3.61232 16.2455 3.40036 16.0893 3.24408C15.933 3.0878 15.721 3 15.5 3ZM5.5 4.66667H14.6667V13H5.5C5.21571 13.0023 4.9339 13.053 4.66667 13.15V5.5C4.66667 5.27899 4.75446 5.06702 4.91074 4.91074C5.06702 4.75446 5.27899 4.66667 5.5 4.66667ZM5.5 16.3333C5.27899 16.3333 5.06702 16.2455 4.91074 16.0893C4.75446 15.933 4.66667 15.721 4.66667 15.5C4.66667 15.279 4.75446 15.067 4.91074 14.9107C5.06702 14.7545 5.27899 14.6667 5.5 14.6667H14.6667V16.3333H5.5Z" fill="white"/>
</svg>
