<svg width="20" height="20" viewBox="0 0 20 20" fill="none" xmlns="http://www.w3.org/2000/svg">
<path d="M18.3333 10.0001C18.3333 8.90573 18.1177 7.8221 17.699 6.81105C17.2802 5.80001 16.6663 4.88135 15.8925 4.10752C15.1187 3.3337 14.2 2.71987 13.189 2.30109C12.1779 1.8823 11.0943 1.66675 9.99996 1.66675C7.78982 1.66675 5.67021 2.54472 4.1074 4.10752C2.5446 5.67033 1.66663 7.78994 1.66663 10.0001C1.66663 12.2102 2.5446 14.3298 4.1074 15.8926C5.67021 17.4554 7.78982 18.3334 9.99996 18.3334C12.2101 18.3334 14.3297 17.4554 15.8925 15.8926C17.4553 14.3298 18.3333 12.2102 18.3333 10.0001ZM16.6083 9.16675H14.1666C14.0292 7.20687 13.3577 5.32204 12.225 3.71675C13.3887 4.13005 14.4147 4.85847 15.1887 5.82078C15.9627 6.78309 16.4541 7.94147 16.6083 9.16675ZM7.56663 10.8334H12.5C12.2867 12.8922 11.4092 14.8257 9.99996 16.3417C8.59168 14.8321 7.73429 12.8912 7.56663 10.8334ZM7.56663 9.16675C7.7607 7.11827 8.61462 5.18818 9.99996 3.66675C11.4206 5.17185 12.3001 7.10678 12.5 9.16675H7.56663ZM7.86663 3.69175C6.72792 5.30593 6.04563 7.19735 5.89163 9.16675H3.39163C3.54905 7.92633 4.05213 6.75518 4.84343 5.78706C5.63473 4.81893 6.68234 4.09286 7.86663 3.69175ZM3.39163 10.8334H5.89163C6.02887 12.8011 6.70653 14.6928 7.84996 16.3001C6.66994 15.897 5.62661 15.1711 4.83852 14.2047C4.05042 13.2384 3.54914 12.0704 3.39163 10.8334ZM12.1833 16.2917C13.3236 14.684 14.0088 12.7982 14.1666 10.8334H16.625C16.4674 12.0669 15.9679 13.2318 15.183 14.1964C14.3981 15.1609 13.3591 15.8867 12.1833 16.2917Z" fill="white"/>
</svg>
