<svg width="12" height="8" viewBox="0 0 12 8" fill="none" xmlns="http://www.w3.org/2000/svg">
<path d="M6 2.4C5.56601 2.4 5.14979 2.56857 4.84292 2.86863C4.53604 3.16869 4.36364 3.57565 4.36364 4C4.36364 4.42435 4.53604 4.83131 4.84292 5.13137C5.14979 5.43143 5.56601 5.6 6 5.6C6.43399 5.6 6.85021 5.43143 7.15708 5.13137C7.46396 4.83131 7.63636 4.42435 7.63636 4C7.63636 3.57565 7.46396 3.16869 7.15708 2.86863C6.85021 2.56857 6.43399 2.4 6 2.4ZM6 6.66667C5.27668 6.66667 4.58299 6.38572 4.07153 5.88562C3.56006 5.38552 3.27273 4.70724 3.27273 4C3.27273 3.29276 3.56006 2.61448 4.07153 2.11438C4.58299 1.61428 5.27668 1.33333 6 1.33333C6.72332 1.33333 7.41701 1.61428 7.92847 2.11438C8.43994 2.61448 8.72727 3.29276 8.72727 4C8.72727 4.70724 8.43994 5.38552 7.92847 5.88562C7.41701 6.38572 6.72332 6.66667 6 6.66667ZM6 0C3.27273 0 0.943636 1.65867 0 4C0.943636 6.34133 3.27273 8 6 8C8.72727 8 11.0564 6.34133 12 4C11.0564 1.65867 8.72727 0 6 0Z" fill="#848D96"/>
</svg>
