<svg width="39" height="35" viewBox="0 0 39 35" fill="none" xmlns="http://www.w3.org/2000/svg">
<path d="M11.122 19.3836L12.7174 15.3999L14.309 19.3836H11.122ZM27.0342 17.5H28.9178V21.2671H27.0342C26.5347 21.2671 26.0556 21.0687 25.7023 20.7154C25.3491 20.3622 25.1507 19.8831 25.1507 19.3836C25.1507 18.884 25.3491 18.4049 25.7023 18.0517C26.0556 17.6985 26.5347 17.5 27.0342 17.5ZM36.4519 0.548096H2.5481C2.04855 0.548096 1.56946 0.74654 1.21623 1.09977C0.862995 1.45301 0.664551 1.9321 0.664551 2.43164V32.5684C0.664551 33.0679 0.862995 33.547 1.21623 33.9003C1.56946 34.2535 2.04855 34.4519 2.5481 34.4519H36.4519C36.9515 34.4519 37.4306 34.2535 37.7838 33.9003C38.137 33.547 38.3355 33.0679 38.3355 32.5684V2.43164C38.3355 1.9321 38.137 1.45301 37.7838 1.09977C37.4306 0.74654 36.9515 0.548096 36.4519 0.548096ZM20.6264 25.0342H16.5673L15.8139 23.1507H9.61705L8.86363 25.0342H4.80647L7.06484 19.3873L7.06673 19.3836L10.8338 9.96583H14.6009L20.6264 25.0342ZM28.9178 9.96583H32.6848V25.0342H27.0342C25.5356 25.0342 24.0983 24.4389 23.0386 23.3792C21.9789 22.3195 21.3836 20.8822 21.3836 19.3836C21.3836 17.8849 21.9789 16.4477 23.0386 15.388C24.0983 14.3283 25.5356 13.7329 27.0342 13.7329H28.9178V9.96583Z" fill="#F8F8F8"/>
</svg>
