<svg width="33" height="31" viewBox="0 0 33 31" fill="none" xmlns="http://www.w3.org/2000/svg">
<path d="M23.6666 15.4999C27.9216 15.4999 31.375 12.0466 31.375 7.79159C31.375 3.53659 27.9216 0.083252 23.6666 0.083252C19.4116 0.083252 15.9583 3.53659 15.9583 7.79159C15.9583 12.0466 19.4116 15.4999 23.6666 15.4999ZM32.0687 24.1333C31.4675 23.5166 30.7121 23.2083 29.8333 23.2083H19.0416L15.835 22.0828L16.3437 20.6337L19.0416 21.6666H23.3583C23.8979 21.6666 24.3296 21.4508 24.6841 21.0962C25.0387 20.7416 25.2083 20.3099 25.2083 19.832C25.2083 18.9995 24.8075 18.4291 24.0058 18.1053L12.7979 13.9583H9.79164V27.8333L20.5833 30.9166L32.9629 26.2916C32.9783 25.4745 32.67 24.7499 32.0687 24.1333ZM6.7083 13.9583H0.516968V30.9166H6.7083V13.9583Z" fill="#F8F8F8"/>
</svg>
